<!DOCTYPE svg PUBLIC "-//W3C//DTD SVG 1.1//EN" "http://www.w3.org/Graphics/SVG/1.1/DTD/svg11.dtd">
<!-- Uploaded to: SVG Repo, www.svgrepo.com, Transformed by: SVG Repo Mixer Tools -->
<svg fill="#ea580c" width="800px" height="800px" viewBox="0 0 32 32" style="fill-rule:evenodd;clip-rule:evenodd;stroke-linejoin:round;stroke-miterlimit:2;" version="1.1" xml:space="preserve" xmlns="http://www.w3.org/2000/svg" xmlns:serif="http://www.serif.com/" xmlns:xlink="http://www.w3.org/1999/xlink">
<g id="SVGRepo_bgCarrier" stroke-width="0"/>
<g id="SVGRepo_tracerCarrier" stroke-linecap="round" stroke-linejoin="round"/>
<g id="SVGRepo_iconCarrier">
<path d="M10.016,10l-3.181,-0c-0.765,-0 -1.501,0.322 -2.041,0.907c-0.513,0.556 -0.807,1.307 -0.807,2.093c0,1.745 0,4.262 0,6.008c0,0.787 0.294,1.539 0.809,2.095c0.542,0.585 1.279,0.907 2.045,0.905l3.176,-0.007c0,0 2.861,3.982 2.861,3.982c0.756,1.053 2.053,1.45 3.218,1.018c1.123,-0.417 1.9,-1.545 1.9,-2.83l-0,-16.345c-0,-1.285 -0.777,-2.413 -1.9,-2.83c-1.166,-0.432 -2.462,-0.034 -3.219,1.019l-2.861,3.985Z"/>
<path d="M26.978,14.984l-5.993,0.014c-0.552,0.002 -0.999,0.451 -0.998,1.003c0.002,0.552 0.451,0.999 1.003,0.997l5.993,-0.014c0.552,-0.001 0.999,-0.45 0.998,-1.002c-0.002,-0.552 -0.451,-0.999 -1.003,-0.998Z"/>
</g>
</svg>